<svg width="25" height="25" viewBox="0 0 25 25" fill="none" xmlns="http://www.w3.org/2000/svg">
<path d="M12.0514 0C5.39238 0 0 5.6 0 12.5C0 19.4 5.39238 25 12.0514 25C18.7225 25 24.127 19.4 24.127 12.5C24.127 5.6 18.7225 0 12.0514 0ZM7.84127 7.5C8.84254 7.5 9.65079 8.3375 9.65079 9.375C9.65079 10.4125 8.84254 11.25 7.84127 11.25C6.84 11.25 6.03175 10.4125 6.03175 9.375C6.03175 8.3375 6.84 7.5 7.84127 7.5ZM12.0635 20C9.31302 20 6.9727 17.925 6.03175 15H18.0952C17.1543 17.925 14.814 20 12.0635 20ZM16.2857 11.25C15.2844 11.25 14.4762 10.4125 14.4762 9.375C14.4762 8.3375 15.2844 7.5 16.2857 7.5C17.287 7.5 18.0952 8.3375 18.0952 9.375C18.0952 10.4125 17.287 11.25 16.2857 11.25Z" fill="#818080" fill-opacity="0.8"/>
</svg>
