<svg width="30" height="31" viewBox="0 0 30 31" fill="none" xmlns="http://www.w3.org/2000/svg">
<path d="M13.5 24.1338H16.5V21.1338H13.5V24.1338ZM15 0.133789C6.72 0.133789 0 6.85379 0 15.1338C0 23.4138 6.72 30.1338 15 30.1338C23.28 30.1338 30 23.4138 30 15.1338C30 6.85379 23.28 0.133789 15 0.133789ZM15 27.1338C8.385 27.1338 3 21.7488 3 15.1338C3 8.51879 8.385 3.13379 15 3.13379C21.615 3.13379 27 8.51879 27 15.1338C27 21.7488 21.615 27.1338 15 27.1338ZM15 6.13379C11.685 6.13379 9 8.81879 9 12.1338H12C12 10.4838 13.35 9.13379 15 9.13379C16.65 9.13379 18 10.4838 18 12.1338C18 15.1338 13.5 14.7588 13.5 19.6338H16.5C16.5 16.2588 21 15.8838 21 12.1338C21 8.81879 18.315 6.13379 15 6.13379Z" fill="#999999" fill-opacity="0.8"/>
</svg>
