<svg width="31" height="32" viewBox="0 0 31 32" fill="none" xmlns="http://www.w3.org/2000/svg">
<path d="M27.2884 17.5667C27.3528 17.0667 27.385 16.55 27.385 16C27.385 15.4667 27.3528 14.9333 27.2724 14.4333L30.5375 11.8C30.8271 11.5667 30.9075 11.1167 30.7306 10.7833L27.6423 5.25C27.4493 4.88333 27.0472 4.76667 26.6933 4.88333L22.8491 6.48333C22.0448 5.85 21.1924 5.31667 20.2434 4.91667L19.6643 0.683333C19.6 0.283333 19.2783 0 18.8923 0H12.7158C12.3297 0 12.0241 0.283333 11.9598 0.683333L11.3807 4.91667C10.4317 5.31667 9.56317 5.86667 8.77503 6.48333L4.9308 4.88333C4.57694 4.75 4.17482 4.88333 3.98181 5.25L0.90964 10.7833C0.716625 11.1333 0.780963 11.5667 1.10266 11.8L4.36784 14.4333C4.28741 14.9333 4.22308 15.4833 4.22308 16C4.22308 16.5167 4.25524 17.0667 4.33567 17.5667L1.07049 20.2C0.780963 20.4333 0.70054 20.8833 0.877471 21.2167L3.96572 26.75C4.15874 27.1167 4.56085 27.2333 4.91471 27.1167L8.75894 25.5167C9.56317 26.15 10.4157 26.6833 11.3647 27.0833L11.9437 31.3167C12.0241 31.7167 12.3297 32 12.7158 32H18.8923C19.2783 32 19.6 31.7167 19.6482 31.3167L20.2273 27.0833C21.1763 26.6833 22.0449 26.15 22.833 25.5167L26.6772 27.1167C27.0311 27.25 27.4332 27.1167 27.6262 26.75L30.7145 21.2167C30.9075 20.85 30.8271 20.4333 30.5215 20.2L27.2884 17.5667ZM15.804 22C12.6193 22 10.0135 19.3 10.0135 16C10.0135 12.7 12.6193 10 15.804 10C18.9888 10 21.5945 12.7 21.5945 16C21.5945 19.3 18.9888 22 15.804 22Z" fill="#A5ACB5"/>
</svg>
